<svg width="317.481995" height="312.134827" viewBox="0 0 317.482 312.135" fill="none" xmlns="http://www.w3.org/2000/svg" xmlns:xlink="http://www.w3.org/1999/xlink">
	<desc>
			Created with Pixso.
	</desc>
	<defs>
		<filter id="filter_2_47_dd" x="67.464233" y="83.668762" width="200.018280" height="152.382233" filterUnits="userSpaceOnUse" color-interpolation-filters="sRGB">
			<feFlood flood-opacity="0" result="BackgroundImageFix"/>
			<feBlend mode="normal" in="SourceGraphic" in2="BackgroundImageFix" result="shape"/>
			<feColorMatrix in="SourceAlpha" type="matrix" values="0 0 0 0 0 0 0 0 0 0 0 0 0 0 0 0 0 0 127 0" result="hardAlpha"/>
			<feOffset dx="0" dy="4"/>
			<feGaussianBlur stdDeviation="1.33333"/>
			<feComposite in2="hardAlpha" operator="arithmetic" k2="-1" k3="1"/>
			<feColorMatrix type="matrix" values="0 0 0 0 0 0 0 0 0 0 0 0 0 0 0 0 0 0 0.25 0"/>
			<feBlend mode="normal" in2="shape" result="effect_innerShadow_1"/>
		</filter>
		<filter id="filter_2_45_dd" x="-31.535767" y="0.000000" width="353.013763" height="320.134827" filterUnits="userSpaceOnUse" color-interpolation-filters="sRGB">
			<feFlood flood-opacity="0" result="BackgroundImageFix"/>
			<feColorMatrix in="SourceAlpha" type="matrix" values="0 0 0 0 0 0 0 0 0 0 0 0 0 0 0 0 0 0 127 0" result="hardAlpha"/>
			<feOffset dx="0" dy="4"/>
			<feGaussianBlur stdDeviation="1.33333"/>
			<feComposite in2="hardAlpha" operator="out" k2="-1" k3="1"/>
			<feColorMatrix type="matrix" values="0 0 0 0 0 0 0 0 0 0 0 0 0 0 0 0 0 0 0.25 0"/>
			<feBlend mode="normal" in2="BackgroundImageFix" result="effect_dropShadow_1"/>
			<feBlend mode="normal" in="SourceGraphic" in2="effect_dropShadow_1" result="shape"/>
		</filter>
		<filter id="filter_2_51_dd" x="12.815796" y="13.602352" width="97.662262" height="90.066406" filterUnits="userSpaceOnUse" color-interpolation-filters="sRGB">
			<feFlood flood-opacity="0" result="BackgroundImageFix"/>
			<feBlend mode="normal" in="SourceGraphic" in2="BackgroundImageFix" result="shape"/>
			<feColorMatrix in="SourceAlpha" type="matrix" values="0 0 0 0 0 0 0 0 0 0 0 0 0 0 0 0 0 0 127 0" result="hardAlpha"/>
			<feOffset dx="0" dy="4"/>
			<feGaussianBlur stdDeviation="1.33333"/>
			<feComposite in2="hardAlpha" operator="arithmetic" k2="-1" k3="1"/>
			<feColorMatrix type="matrix" values="0 0 0 0 0 0 0 0 0 0 0 0 0 0 0 0 0 0 0.25 0"/>
			<feBlend mode="normal" in2="shape" result="effect_innerShadow_1"/>
		</filter>
		<linearGradient x1="186.317017" y1="5.065388" x2="373.964233" y2="386.668732" id="paint_linear_2_34_0" gradientUnits="userSpaceOnUse">
			<stop stop-color="#FFD99F"/>
			<stop offset="1.000000" stop-color="#FFD99F" stop-opacity="0.000000"/>
		</linearGradient>
		<linearGradient x1="234.561707" y1="215.704773" x2="234.561707" y2="308.788330" id="paint_linear_2_37_0" gradientUnits="userSpaceOnUse">
			<stop stop-color="#B6FFE3"/>
			<stop offset="1.000000" stop-color="#B6FFE3" stop-opacity="0.000000"/>
		</linearGradient>
		<linearGradient x1="126.258972" y1="242.888916" x2="126.258972" y2="309.681244" id="paint_linear_2_40_0" gradientUnits="userSpaceOnUse">
			<stop stop-color="#CCC7FF"/>
			<stop offset="1.000000" stop-color="#CCC7FF" stop-opacity="0.000000"/>
		</linearGradient>
	</defs>
	<rect width="317.481995" height="312.134827"/>
	<g filter="url(#filter_2_47_dd)">
		<path id="合并" d="M220.711 83.8162C219.411 83.3501 217.98 84.0258 217.514 85.3254L203.772 123.639C198.204 121.846 192.464 120.473 186.629 119.53C161.392 115.42 136.493 119.621 116.03 129.824C111.289 132.18 106.869 134.813 102.781 137.683L88.2941 113.526C87.553 112.29 85.9506 111.889 84.7149 112.63C83.4792 113.371 83.0782 114.974 83.8193 116.21L98.5735 140.812C85.8643 150.82 76.8253 163.254 71.8785 176.692C64.3288 197.098 66.7729 218.089 76.8475 236.051L86.7788 232.207L267.302 210.71L267.016 208.308L267.086 208.313C269.36 187.051 261.737 166.933 247.383 151.103C236.888 139.495 223.412 130.828 208.496 125.278L222.22 87.0135C222.686 85.7138 222.011 84.2824 220.711 83.8162ZM255.358 205.299C256.544 188.593 250.89 171.464 237.823 157.069C225.2 143.124 206.564 132.856 184.337 129.274C163.713 125.925 141.587 128.649 122.185 138.336C104.162 147.306 89.9194 161.622 83.3158 179.597C77.9009 194.263 77.9927 210.377 84.6019 225.633L255.358 205.299ZM221.324 179.101C221.803 175.776 221.176 172.271 219.297 169.181L206.478 176.972L210.198 162.441C206.943 161.609 203.391 161.854 200.116 163.392C197.073 164.814 194.487 167.261 192.935 170.529C191.49 173.561 191.048 177.094 191.927 180.603C192.738 183.863 194.642 186.871 197.551 189.022C200.249 191.023 203.631 192.136 207.244 191.948C210.599 191.779 213.917 190.49 216.587 188.049C219.071 185.786 220.813 182.682 221.324 179.101ZM133.056 176.436C135.389 179.269 136.508 182.707 136.473 186.116C136.442 189.787 135.087 193.139 132.868 195.727C130.483 198.517 127.289 200.213 123.926 200.767C120.305 201.37 116.769 200.615 113.837 198.876C110.676 197.009 108.454 194.157 107.328 190.94C106.108 187.477 106.241 183.864 107.448 180.675C108.741 177.24 111.167 174.559 114.141 172.893C117.341 171.094 120.923 170.601 124.272 171.235L121.477 185.972L133.056 176.436Z" clip-rule="evenodd" fill="#5E87FF" fill-opacity="1.000000" fill-rule="evenodd"/>
	</g>
	<g filter="url(#filter_2_45_dd)">
		<path id="减去顶层" d="M158.168 9.95713C194.935 7.67403 229.456 18.8744 256.899 39.2916C286.49 61.2313 305.647 92.0559 313.451 125.359C321.914 161.21 316.673 197.123 301.157 227.606C284.501 260.463 257.334 284.527 225.815 297.815C191.895 312.182 155.613 313.049 122.956 302.876C87.7681 291.977 59.4813 269.239 41.0859 240.402C21.2245 209.378 14.273 173.757 18.7791 139.851L44.4433 143.272C43.1441 149.231 42.4642 155.381 42.4642 161.669C42.4642 215.793 92.8322 259.669 154.964 259.669C217.096 259.669 267.464 215.793 267.464 161.669C267.464 109.46 220.597 66.7863 161.513 63.832L158.168 9.95713Z" clip-rule="evenodd" fill="#5E87FF" fill-opacity="1.000000" fill-rule="evenodd"/>
		<path id="多边形 2" d="M191.46 8.66L155.46 11.66L150.46 20.66L147.46 36.85L137.46 43.66L147.46 48.66L150.46 56.66C150.46 56.66 159.71 67.66 181.46 67.66C203.21 67.66 238.46 75.66 238.46 75.66C238.46 75.66 291.46 91.66 267.96 80.66C244.46 69.66 230.96 32.66 230.96 32.66L191.46 8.66Z" fill="#5E87FF" fill-opacity="1.000000" fill-rule="evenodd"/>
		<path id="多边形 2" d="M155.46 11.66L150.46 20.66L147.46 36.85L137.46 43.66L147.46 48.66L150.46 56.66C150.46 56.66 159.71 67.66 181.46 67.66C203.21 67.66 238.46 75.66 238.46 75.66C238.46 75.66 291.46 91.66 267.96 80.66C244.46 69.66 230.96 32.66 230.96 32.66L191.46 8.66L155.46 11.66Z" stroke="#5E87FF" stroke-opacity="1.000000" stroke-width="5.000000"/>
		<path id="矢量 2" d="M63.69 264.69C-96.27 65.88 118.05 159.33 146.99 111.1" stroke="#5E87FF" stroke-opacity="1.000000" stroke-width="10.000000"/>
		<path id="多边形 1" d="M12.84 140.59L3.24 155C2.75 155.74 2.61 156.67 2.86 157.52L13.05 191.8C13.31 192.66 13.94 193.37 14.77 193.71L22.42 196.9C24.05 197.58 25.91 196.71 26.44 195.02L42.29 144.21C42.4 143.85 42.58 143.51 42.82 143.22L49.1 135.43C50.93 133.16 48.77 129.88 45.96 130.66L14.54 139.37C13.84 139.56 13.24 139.99 12.84 140.59Z" fill="#5E87FF" fill-opacity="1.000000" fill-rule="evenodd"/>
		<path id="多边形 1" d="M12.84 140.59L3.24 155C2.75 155.74 2.61 156.67 2.86 157.52L13.05 191.8C13.31 192.66 13.94 193.37 14.77 193.71L22.42 196.9C24.05 197.58 25.91 196.71 26.44 195.02L42.29 144.21C42.4 143.85 42.58 143.51 42.82 143.22L49.1 135.43C50.93 133.16 48.77 129.88 45.96 130.66L14.54 139.37C13.84 139.56 13.24 139.99 12.84 140.59Z" fill="#5E87FF" fill-opacity="1.000000" fill-rule="evenodd"/>
		<path id="多边形 1" d="M3.24 155C2.75 155.74 2.61 156.67 2.86 157.52L13.05 191.8C13.31 192.66 13.94 193.37 14.77 193.71L22.42 196.9C24.05 197.58 25.91 196.71 26.44 195.02L42.29 144.21C42.4 143.85 42.58 143.51 42.82 143.22L49.1 135.43C50.93 133.16 48.77 129.88 45.96 130.66L14.54 139.37C13.84 139.56 13.24 139.99 12.84 140.59L3.24 155Z" stroke="#5E87FF" stroke-opacity="1.000000" stroke-width="5.000000"/>
		<path id="多边形 1" d="M122.47 127.16L51.46 127.16L82.6 127.16C82.77 127.16 82.95 127.18 83.12 127.21L96.36 129.55C96.78 129.63 97.21 129.61 97.62 129.5L151.55 115.71C152.56 115.45 153.36 114.69 153.61 113.67C154.5 110.04 155.97 101.74 150.18 104.07C143.78 106.65 128.5 122.24 124.65 126.23C124.08 126.82 123.29 127.16 122.47 127.16Z" fill="#5E87FF" fill-opacity="1.000000" fill-rule="evenodd"/>
		<path id="多边形 1" d="M122.47 127.16L51.46 127.16L82.6 127.16C82.77 127.16 82.95 127.18 83.12 127.21L96.36 129.55C96.78 129.63 97.21 129.61 97.62 129.5L151.55 115.71C152.56 115.45 153.36 114.69 153.61 113.67C154.5 110.04 155.97 101.74 150.18 104.07C143.78 106.65 128.5 122.24 124.65 126.23C124.08 126.82 123.29 127.16 122.47 127.16Z" fill="#5E87FF" fill-opacity="1.000000" fill-rule="evenodd"/>
		<path id="多边形 1" d="M51.46 127.16L82.6 127.16C82.77 127.16 82.95 127.18 83.12 127.21L96.36 129.55C96.78 129.63 97.21 129.61 97.62 129.5L151.55 115.71C152.56 115.45 153.36 114.69 153.61 113.67C154.5 110.04 155.97 101.74 150.18 104.07C143.78 106.65 128.5 122.24 124.65 126.23C124.08 126.82 123.29 127.16 122.47 127.16L51.46 127.16Z" stroke="#5E87FF" stroke-opacity="1.000000" stroke-width="5.000000"/>
		<path id="椭圆 1" d="M192.51 9.21C229.99 16.34 261.65 37.46 283.16 66.39C306.9 98.21 316.36 136.65 312.65 173.62C308.7 213.46 289.92 248.12 262.51 272.49C233.01 298.79 196.15 310.93 159.87 309.52C121.64 308.08 87.33 291.84 61.94 266.43C60.98 265.47 60.99 263.92 61.94 262.96C62.93 261.96 64.54 261.97 65.53 262.96C91.88 289.31 125.78 303.15 160.07 304.47C197.85 305.97 232.8 292.25 259.28 268.67C287.85 243.31 304.17 208.83 307.74 173.09C311.64 134.59 300.51 98.01 279.23 69.44C256.89 39.36 225.33 20.63 191.65 14.19C190.29 13.93 189.37 12.64 189.59 11.27C189.82 9.89 191.13 8.95 192.51 9.21Z" fill="#5E87FF" fill-opacity="1.000000" fill-rule="evenodd"/>
		<path id="椭圆 1" d="M283.16 66.39C306.9 98.21 316.36 136.65 312.65 173.62C308.7 213.46 289.92 248.12 262.51 272.49C233.01 298.79 196.15 310.93 159.87 309.52C121.64 308.08 87.33 291.84 61.94 266.43C60.98 265.47 60.99 263.92 61.94 262.96C62.93 261.96 64.54 261.97 65.53 262.96C91.88 289.31 125.78 303.15 160.07 304.47C197.85 305.97 232.8 292.25 259.28 268.67C287.85 243.31 304.17 208.83 307.74 173.09C311.64 134.59 300.51 98.01 279.23 69.44C256.89 39.36 225.33 20.63 191.65 14.19C190.29 13.93 189.37 12.64 189.59 11.27C189.82 9.89 191.13 8.95 192.51 9.21C229.99 16.34 261.65 37.46 283.16 66.39Z" stroke="#5E87FF" stroke-opacity="1.000000" stroke-width="5.000000"/>
		<path id="矢量 1" d="M165.31 61.33L135.36 45.08C132.61 43.58 133.7 39.01 136.79 38.48C156.81 35 153.35 21.17 146.08 10.46C144.5 8.12 146.39 4.65 149.18 5.05L192.1 11.16" stroke="#5E87FF" stroke-opacity="1.000000" stroke-width="10.000000"/>
	</g>
	<path id="减去顶层" d="M242.8 222.908L282.352 256.109C295.842 240.096 306.165 220.982 312.093 199.495C317.676 179.308 319.098 157.632 315.525 135.625L265.585 143.735C266.819 149.549 267.464 155.543 267.464 161.669C267.464 184.839 258.233 206.132 242.8 222.908Z" clip-rule="evenodd" fill="url(#paint_linear_2_34_0)" fill-opacity="1.000000" fill-rule="evenodd"/>
	<path id="减去顶层" d="M178.121 257.591L183.692 308.788C204.512 306.559 225.189 299.901 244.335 288.488C262.333 277.776 278.357 263.109 291.003 244.747L248.832 215.705C232.771 236.834 207.56 252.225 178.121 257.591Z" clip-rule="evenodd" fill="url(#paint_linear_2_37_0)" fill-opacity="1.000000" fill-rule="evenodd"/>
	<path id="减去顶层" d="M91.9915 242.889L66.6964 270.781C82.1815 284.873 100.886 295.92 122.13 302.667C142.087 309.018 163.694 311.27 185.822 308.541L179.507 257.33C171.607 258.861 163.394 259.669 154.964 259.669C131.633 259.669 109.961 253.482 91.9915 242.889Z" clip-rule="evenodd" fill="url(#paint_linear_2_40_0)" fill-opacity="0.996078" fill-rule="evenodd"/>
	<g filter="url(#filter_2_51_dd)">
		<path id="AI" d="M25.09 102.66L13.81 102.66L43.69 14.6L56.06 14.6L85.94 102.66L74.19 102.66L65.78 75.77L33.62 75.77L25.09 102.66ZM109.47 102.66L98.31 102.66L98.31 14.6L109.47 14.6L109.47 102.66ZM49.47 23.71C46.71 34.02 43.81 43.51 40.71 53.47L36.37 66.89L63.03 66.89L58.81 53.47C55.59 43.51 52.8 33.9 49.93 23.71L49.47 23.71Z" fill="#5E87FF" fill-opacity="1.000000" fill-rule="evenodd"/>
	</g>
	<path id="AI" d="M40.71 53.47C43.81 43.51 46.71 34.02 49.47 23.71L49.93 23.71C52.8 33.9 55.59 43.51 58.81 53.47L63.03 66.89L36.37 66.89L40.71 53.47ZM13.81 102.66L25.09 102.66L33.62 75.77L65.78 75.77L74.19 102.66L85.94 102.66L56.06 14.6L43.69 14.6L13.81 102.66ZM98.31 102.66L109.47 102.66L109.47 14.6L98.31 14.6L98.31 102.66Z" stroke="#5AB1FF" stroke-opacity="1.000000" stroke-width="1.000000"/>
</svg>
